<?xml version="1.0" standalone="no"?>
<!DOCTYPE svg PUBLIC "-//W3C//DTD SVG 20010904//EN"
 "http://www.w3.org/TR/2001/REC-SVG-20010904/DTD/svg10.dtd">
<svg version="1.0" xmlns="http://www.w3.org/2000/svg"
 width="800.000000pt" height="800.000000pt" viewBox="0 0 800.000000 800.000000"
 preserveAspectRatio="xMidYMid meet">
<metadata>
Created by potrace 1.11, written by Peter Selinger 2001-2013
</metadata>
<g transform="translate(0.000000,800.000000) scale(0.100000,-0.100000)"
fill="#000000" stroke="none">
<path d="M2995 6709 c-280 -169 -603 -363 -716 -431 l-207 -123 -6 -140 c-3
-77 -8 -468 -11 -868 l-5 -728 22 12 c13 6 82 46 153 89 72 42 186 110 255
150 69 40 211 124 315 186 105 61 296 174 425 249 129 76 247 147 263 157 l27
19 53 -29 c28 -16 90 -51 137 -79 265 -156 665 -390 940 -550 52 -31 115 -68
140 -83 25 -15 77 -46 117 -69 l71 -41 6 -112 c3 -62 10 -196 16 -298 6 -102
10 -196 10 -209 l0 -23 98 7 c53 4 284 13 512 19 l415 12 104 -54 c58 -30 161
-85 230 -123 69 -37 126 -67 127 -66 1 1 5 382 9 847 l7 845 -354 205 c-480
278 -578 335 -683 395 -49 28 -135 78 -190 110 -181 106 -270 155 -280 155
-10 0 -256 -137 -415 -231 -111 -65 -99 -92 -102 242 l-3 293 -55 32 c-30 18
-66 39 -80 46 -28 16 -720 425 -790 468 l-45 27 -510 -308z"/>
<path d="M3530 2710 c0 -467 2 -850 5 -850 6 0 444 251 544 312 34 21 66 38
70 38 5 0 15 8 24 18 15 17 17 65 17 485 l0 466 -91 56 c-149 92 -550 325
-560 325 -5 0 -9 -346 -9 -850z"/>
</g>
</svg>
