<svg id="Layer_1" data-name="Layer 1" xmlns="http://www.w3.org/2000/svg" xmlns:xlink="http://www.w3.org/1999/xlink" viewBox="0 0 166.94 223.58"><defs><style>.cls-1,.cls-10,.cls-11,.cls-12,.cls-2,.cls-3,.cls-4,.cls-5,.cls-6,.cls-7,.cls-8,.cls-9{fill-rule:evenodd;}.cls-1{fill:url(#GradientFill_1);}.cls-2{fill:#00adfe;}.cls-3{fill:#00addc;}.cls-4{fill:#1fd2ff;}.cls-5{fill:#00b0dc;}.cls-6{fill:#0cf;}.cls-7{fill:#00e8fe;}.cls-8{fill:#41d9ff;}.cls-9{fill:#00fef5;}.cls-10{fill:url(#GradientFill_2);}.cls-11{fill:url(#GradientFill_3);}.cls-12{fill:#0096dc;}</style><linearGradient id="GradientFill_1" x1="55.16" y1="32.21" x2="111.29" y2="32.21" gradientUnits="userSpaceOnUse"><stop offset="0" stop-color="#004c70"/><stop offset="0.07" stop-color="#0b658c"/><stop offset="0.16" stop-color="#1780aa"/><stop offset="0.27" stop-color="#2096c3"/><stop offset="0.38" stop-color="#28a7d6"/><stop offset="0.51" stop-color="#2db3e4"/><stop offset="0.68" stop-color="#30baec"/><stop offset="1" stop-color="#31bcee"/></linearGradient><linearGradient id="GradientFill_2" x1="56.09" y1="159.74" x2="112.51" y2="159.74" gradientUnits="userSpaceOnUse"><stop offset="0" stop-color="#00626a"/><stop offset="0.02" stop-color="#086972"/><stop offset="0.13" stop-color="#248592"/><stop offset="0.25" stop-color="#3b9cad"/><stop offset="0.38" stop-color="#4dadc1"/><stop offset="0.53" stop-color="#5abacf"/><stop offset="0.7" stop-color="#62c1d7"/><stop offset="1" stop-color="#64c3da"/></linearGradient><linearGradient id="GradientFill_3" x1="136.81" y1="74.18" x2="140.51" y2="180.1" gradientUnits="userSpaceOnUse"><stop offset="0" stop-color="#006069"/><stop offset="0.02" stop-color="#086871"/><stop offset="0.13" stop-color="#278491"/><stop offset="0.25" stop-color="#409cac"/><stop offset="0.38" stop-color="#54aec0"/><stop offset="0.53" stop-color="#61bbce"/><stop offset="0.7" stop-color="#6ac3d6"/><stop offset="1" stop-color="#6cc5d9"/></linearGradient></defs><title>refractive</title><polygon class="cls-1" points="55.65 64.42 111.13 32.3 55.32 0 55.65 64.42"/><polygon class="cls-2" points="111.13 32.3 55.65 64.42 109.98 96.22 111.13 32.3"/><polygon class="cls-3" points="111.13 32.3 109.98 96.22 166.94 64.59 111.13 32.3"/><polygon class="cls-2" points="166.94 64.59 109.98 96.22 166.28 127.53 166.94 64.59"/><path class="cls-4" d="M449.59,253l-0.11-3.07-2.2-60.69L393.62,221" transform="translate(-337.3 -93)"/><polygon class="cls-5" points="1.32 96.39 55.65 64.42 1.99 32.13 1.32 96.39"/><polygon class="cls-6" points="55.65 64.42 1.32 96.39 56.32 128.02 55.65 64.42"/><polygon class="cls-7" points="56.32 128.02 1.32 96.39 0.66 160.32 56.32 128.02"/><polygon class="cls-8" points="56.32 128.02 0.66 160.32 56.31 191.45 56.32 128.02"/><polygon class="cls-9" points="56.31 191.45 0.66 160.32 0 223.58 56.31 191.45"/><polygon class="cls-10" points="56.32 128.02 56.31 191.45 112.29 159.99 110.63 159.04 94.24 149.68 91.8 148.29 56.32 128.02"/><polyline class="cls-11" points="112.29 159.99 166.28 127.53 109.98 96.22"/><polygon class="cls-12" points="1.99 32.13 55.65 64.42 55.32 0 1.99 32.13"/></svg>